<svg width="136" height="135" viewBox="0 0 136 135" fill="none" xmlns="http://www.w3.org/2000/svg">
<path d="M107.82 105.291V116.951H78.966V105.291H15.432C13.3649 105.322 11.3115 104.952 9.38499 104.202C7.68132 103.538 6.12329 102.549 4.79798 101.289C3.55862 100.114 2.56802 98.7022 1.88499 97.137C1.20413 95.5732 0.857384 93.8845 0.866985 92.179V116.841C0.866459 119.202 1.33105 121.539 2.23419 123.72C3.13733 125.901 4.46134 127.883 6.13058 129.552C7.79982 131.222 9.78156 132.546 11.9626 133.449C14.1437 134.352 16.4813 134.817 18.842 134.816H117.695C122.462 134.816 127.034 132.922 130.405 129.551C133.776 126.18 135.67 121.608 135.67 116.841V81.391L118.035 105.291H107.82Z" fill="#D21D5B"/>
<path d="M84.09 63.084C82.1979 59.554 79.1808 56.7572 75.5178 55.1375C71.8548 53.5179 67.7557 53.1682 63.8713 54.144C59.9868 55.1198 56.5397 57.3652 54.077 60.5237C51.6143 63.6822 50.2772 67.5729 50.278 71.578C50.278 72.099 50.31 72.604 50.357 73.11C50.5855 75.7668 51.4026 78.3394 52.749 80.6412C54.0953 82.943 55.9372 84.9161 58.141 86.4175C60.3448 87.9189 62.8552 88.9109 65.49 89.3215C68.1248 89.732 70.818 89.5509 73.3741 88.7911C75.9303 88.0314 78.2852 86.7122 80.268 84.9292C82.2509 83.1462 83.812 80.9441 84.838 78.4828C85.864 76.0214 86.3291 73.3626 86.1998 70.6991C86.0704 68.0356 85.3497 65.4343 84.09 63.084V63.084Z" fill="#D21D5B"/>
<path d="M117.19 41.73H113.203V36.07C113.269 32.5585 112.672 29.0661 111.443 25.776C110.365 22.9358 108.695 20.3576 106.543 18.213C106.417 18.087 106.267 17.984 106.132 17.858H126.361L135.645 17.866C135.617 13.1191 133.712 8.57589 130.347 5.22852C126.981 1.88115 122.427 0.00150387 117.68 0L18.826 0C14.0588 0.00026519 9.48697 1.89414 6.11606 5.26505C2.74515 8.63596 0.851278 13.2078 0.851013 17.975V92.175C0.869286 90.0524 1.36592 87.9612 2.304 86.057C3.46108 83.7843 5.10227 81.7929 7.11201 80.223L77.505 23.1C79.6844 21.2966 82.1792 19.9129 84.863 19.019C86.3845 18.5238 87.949 18.1723 89.536 17.969C90.0886 17.8987 90.645 17.8616 91.202 17.858C93.3326 17.8569 95.4493 18.2007 97.47 18.876C99.4595 19.5313 101.275 20.6268 102.783 22.081C104.392 23.6927 105.635 25.631 106.43 27.765C107.408 30.4202 107.877 33.2361 107.812 36.065V81.391H135.648V50.508L117.182 74.381H113.195V50.508H135.639V17.975C135.639 17.936 135.631 17.904 135.631 17.864L117.19 41.73Z" fill="#D21D5B"/>
</svg>
